# xmcd
# 
# Track frame offsets:
#     150
#     19506
#     41129
#     51933
# 
# Disc length: 955
# 
# Revision: 0
# Processed by: cddbd v1.5.2PL0 Copyright (c) Steve Scherf et al.
# Submitted via: fre:ac v1.0.17
# 
DISCID=2c03b904
DTITLE=God Fires Man - EP
DYEAR=0
DGENRE=
TTITLE0=The Killer
TTITLE1=Shrug
TTITLE2=Bombs
TTITLE3=Simple Things
EXTD=
EXTT0=
EXTT1=
EXTT2=
EXTT3=
PLAYORDER=
